<?xml version="1.0" standalone="no"?>
<!DOCTYPE svg PUBLIC "-//W3C//DTD SVG 20010904//EN"
 "http://www.w3.org/TR/2001/REC-SVG-20010904/DTD/svg10.dtd">
<svg version="1.0" xmlns="http://www.w3.org/2000/svg"
 width="700.000000pt" height="700.000000pt" viewBox="0 0 700.000000 700.000000"
 preserveAspectRatio="xMidYMid meet">
<metadata>
Created by potrace 1.14, written by Peter Selinger 2001-2017
</metadata>
<g transform="translate(0.000000,700.000000) scale(0.100000,-0.100000)"
fill="#000000" stroke="none">
<path d="M222 6981 c-92 -32 -168 -107 -202 -201 -20 -54 -20 -82 -18 -2750 3
-2492 4 -2698 20 -2730 45 -95 124 -166 213 -192 27 -8 171 -13 445 -14 223
-1 407 -3 410 -3 3 -1 5 -180 4 -399 0 -425 2 -455 50 -536 30 -52 70 -87 140
-124 l51 -27 2710 0 2710 0 56 28 c66 32 132 99 162 165 l22 47 0 1285 0 1285
-27 55 c-43 90 -103 144 -193 175 -47 16 -175 17 -1880 19 l-1830 1 -1 1815
c0 998 -4 1833 -8 1854 -19 99 -91 190 -186 235 l-55 26 -1270 2 c-1210 2
-1272 2 -1323 -16z m2569 -218 c15 -9 34 -30 41 -47 16 -39 19 -5281 3 -5329
-5 -17 -23 -40 -38 -51 l-28 -21 -1229 -1 c-1122 -2 -1232 0 -1262 15 -18 9
-38 27 -45 41 -10 20 -13 577 -13 2681 l0 2656 21 27 c12 15 31 32 43 36 11 5
574 9 1249 9 1137 1 1231 0 1258 -16z m3925 -3931 c17 -7 38 -26 47 -41 16
-27 17 -122 17 -1258 0 -955 -3 -1233 -13 -1252 -6 -13 -23 -32 -37 -43 -24
-17 -114 -18 -2676 -18 -1735 0 -2661 3 -2678 10 -14 5 -34 23 -45 40 -17 28
-18 59 -18 425 -1 359 1 395 16 396 9 1 345 2 746 3 l730 1 63 29 c78 36 143
105 173 184 21 57 21 63 22 792 0 404 4 737 8 740 4 3 819 5 1811 5 1424 -1
1810 -3 1834 -13z"/>
<path d="M674 6432 c-78 -39 -123 -113 -124 -200 0 -126 108 -223 240 -214
174 14 257 243 132 368 -63 62 -175 83 -248 46z"/>
<path d="M1444 5665 c-63 -29 -98 -68 -119 -130 -34 -101 12 -210 110 -263 42
-23 150 -22 195 2 132 70 159 244 53 350 -61 62 -159 79 -239 41z"/>
<path d="M2202 4899 c-208 -106 -131 -419 101 -412 189 6 280 227 152 366 -38
40 -82 59 -150 64 -48 3 -69 0 -103 -18z"/>
<path d="M497 4143 c-74 -38 -76 -145 -4 -188 29 -17 80 -18 1036 -18 917 0
1009 2 1038 17 39 19 55 47 55 91 0 41 -15 70 -49 93 -25 16 -93 17 -1040 18
-796 0 -1017 -3 -1036 -13z"/>
<path d="M692 3597 c-51 -19 -98 -62 -122 -112 -31 -64 -25 -156 13 -213 40
-61 108 -97 182 -97 105 1 185 62 210 163 43 167 -121 317 -283 259z"/>
<path d="M2210 3589 c-121 -54 -165 -196 -96 -313 38 -65 103 -101 181 -100
100 1 170 49 204 140 67 179 -115 351 -289 273z"/>
<path d="M697 2066 c-126 -46 -184 -183 -127 -301 21 -43 75 -94 115 -109 142
-53 295 49 296 196 1 92 -54 180 -129 209 -44 17 -116 19 -155 5z"/>
<path d="M2202 2053 c-85 -45 -126 -114 -120 -203 8 -108 70 -181 171 -202
137 -29 262 74 260 213 -3 161 -172 265 -311 192z"/>
<path d="M4030 2623 c-37 -11 -63 -30 -77 -57 -14 -27 -16 -145 -16 -1037 0
-952 1 -1008 18 -1037 45 -76 158 -69 189 12 18 44 16 2031 -1 2062 -22 39
-78 67 -113 57z"/>
<path d="M3315 2499 c-215 -82 -174 -396 55 -416 99 -9 181 39 220 128 34 79
21 161 -35 228 -58 68 -155 92 -240 60z"/>
<path d="M4637 2503 c-125 -36 -188 -188 -127 -306 86 -163 325 -151 397 20
28 68 8 169 -45 230 -49 56 -145 79 -225 56z"/>
<path d="M6162 2502 c-152 -50 -193 -252 -75 -364 106 -101 286 -64 346 71 37
85 19 178 -50 244 -59 58 -141 76 -221 49z"/>
<path d="M5370 1723 c-165 -87 -155 -320 18 -394 73 -31 184 -7 238 53 78 85
79 218 2 297 -44 45 -82 62 -147 68 -48 4 -64 1 -111 -24z"/>
<path d="M1823 979 c-127 -23 -201 -132 -175 -258 14 -66 52 -116 113 -149 62
-33 158 -28 217 11 126 83 129 274 7 359 -49 33 -106 47 -162 37z"/>
<path d="M4660 978 c-166 -29 -232 -243 -112 -363 45 -45 90 -65 147 -65 70 0
102 10 146 48 172 148 43 419 -181 380z"/>
<path d="M6187 978 c-99 -21 -168 -109 -169 -213 -1 -118 95 -215 212 -215
125 0 220 92 220 215 0 140 -127 243 -263 213z"/>
</g>
</svg>
